PathFileType	4	(X/Y/Z)	G:\Shared drives\HPL_Drive\Pi-Spi Study\20230118_AMCsubject1\Trimmed_left_flex_18001_rotated.trc
DataRate	CameraRate	NumFrames	NumMarkers	Units	OrigDataRate	OrigDataStartFrame	OrigNumFrames
200.00	200.00	       5	35	mm	200.00	176	       200
Frame#	Time	C7			Sternum			r_AMC1			r_AMC2			r_AMC3			l_AMC1			l_AMC2			l_AMC3			PX			T8			r_humerous			r_elbow_medial			r_elbow_lateral			r_forearm			r_wrist_radius			r_wrist_ulna			r_MCP_1			r_MCP_3			l_humerous			l_elbow_medial			l_elbow_lateral			l_forearm			l_wrist_radius			l_wrist_ulna			l_MCP_1			l_MCP_3			r_ASIS			r_PSIS			l_ASIS			l_PSIS			r_IC			l_IC			TS			AI			AA			
		X1	Y1	Z1	X2	Y2	Z2	X3	Y3	Z3	X4	Y4	Z4	X5	Y5	Z5	X6	Y6	Z6	X7	Y7	Z7	X8	Y8	Z8	X9	Y9	Z9	X10	Y10	Z10	X11	Y11	Z11	X12	Y12	Z12	X13	Y13	Z13	X14	Y14	Z14	X15	Y15	Z15	X16	Y16	Z16	X17	Y17	Z17	X18	Y18	Z18	X19	Y19	Z19	X20	Y20	Z20	X21	Y21	Z21	X22	Y22	Z22	X23	Y23	Z23	X24	Y24	Z24	X25	Y25	Z25	X26	Y26	Z26	X27	Y27	Z27	X28	Y28	Z28	X29	Y29	Z29	X30	Y30	Z30	X31	Y31	Z31	X32	Y32	Z32	X33	Y33	Z33	X34	Y34	Z34	X35	Y35	Z35	

176	0.875	195.1312	1368.0205	-235.8241	331.9933	1325.1096	-205.6383	178.1335	1318.4608	-78.6432	208.2635	1322.5316	-38.1736	228.8974	1358.7087	-56.8949	201.7846	1340.4685	-359.6566	236.5187	1375.4199	-373.8889	224.6067	1396.5713	-327.0604	406.3232	1135.0389	-198.8251	174.8864	1189.358	-239.2543	293.2031	1143.3179	-11.8524	233.2986	998.2174	-41.7262	244.8996	1010.0089	23.1493	303.4542	857.5234	50.7274	355.6599	795.906	34.4407	307.7689	787.3639	51.4345	379.9397	714.5586	49.5504	331.3684	709.6619	62.9921	315.3511	1475.4192	-353.9339	406.8934	1563.353	-432.5015	361.3517	1588.8583	-440.5439	383.9699	1748.2948	-442.3226	394.4516	1821.3109	-425.2168	430.4237	1816.6616	-449.3987	398.0946	1896.076	-434.1789	437.2758	1892.6412	-452.0908	373.3226	907.3122	-77.6313	186.133	928.7817	-163.0337	375.4758	894.5596	-335.7749	187.5836	922.5422	-265.2812	292.3999	970.7249	-51.2867	290.8419	940.9401	-375.7588	138.657	1289.7733	-334.4902	166.659	1197.839	-366.5339	197.0948	1351.0233	-443.8976
177	0.88	195.1185	1368.0079	-235.8194	331.9971	1325.1036	-205.6303	178.144	1318.4547	-78.6571	208.2694	1322.483	-38.1763	228.8645	1358.6122	-56.7976	201.7349	1340.4611	-359.6511	236.5092	1375.4196	-373.9027	224.5891	1396.5726	-327.0543	406.3159	1135.048	-198.79	174.877	1189.3785	-239.2699	293.188	1143.3319	-11.8711	233.3165	998.2112	-41.7542	244.895	1009.9983	23.1108	303.4819	857.5009	50.7051	355.6095	796.0214	34.41	307.7321	787.3425	51.3927	380.0007	714.5187	49.4679	331.3931	709.6456	62.9497	315.3818	1475.4125	-353.9152	406.8778	1563.3787	-432.5171	361.3763	1588.842	-440.5536	383.9863	1748.2936	-442.3331	394.4669	1821.3068	-425.2037	430.421	1816.6887	-449.4005	398.1062	1896.0646	-434.1956	437.2969	1892.6296	-452.122	373.4095	907.3323	-77.6569	186.1143	928.783	-163.0335	375.4632	894.5711	-335.7631	187.5771	922.5699	-265.2763	292.3305	970.8814	-51.2981	290.7955	940.9333	-375.7506	138.6822	1289.7837	-334.5101	166.6632	1197.8218	-366.5512	197.0839	1351.0161	-443.8935
178	0.885	195.0896	1368.0245	-235.8219	331.961	1325.127	-205.6285	178.0872	1318.4413	-78.6473	208.2828	1322.4724	-38.2233	228.8255	1358.7379	-56.8879	201.7498	1340.4679	-359.6713	236.5078	1375.4196	-373.8923	224.5967	1396.5542	-327.0755	406.2896	1135.0768	-198.829	174.8695	1189.3591	-239.2617	293.179	1143.318	-11.8739	233.3009	998.1941	-41.7752	244.9192	1009.9686	23.063	303.4653	857.4894	50.6275	355.6214	795.932	34.3431	307.8241	787.3311	51.3057	379.9968	714.5051	49.4256	331.4193	709.6364	62.8829	315.3414	1475.433	-353.9039	406.8863	1563.3345	-432.5092	361.3764	1588.8038	-440.5682	383.9936	1748.2727	-442.3426	394.4934	1821.2751	-425.2331	430.4208	1816.6836	-449.4238	398.2243	1895.8615	-433.3931	437.352	1892.744	-452.0184	373.3354	907.349	-77.6453	186.0975	928.7812	-163.0475	375.4622	894.5936	-335.7697	187.5563	922.5498	-265.2875	292.3721	970.785	-51.2876	290.8366	940.938	-375.8166	138.6469	1289.7615	-334.5112	166.6524	1197.7887	-366.5756	197.0722	1351.0109	-443.8976
179	0.89	195.0923	1368.0072	-235.8099	331.9721	1325.1057	-205.6309	178.0994	1318.4471	-78.6525	208.2009	1322.5465	-38.226	228.7968	1358.5874	-56.7865	201.7333	1340.4556	-359.6678	236.4883	1375.4094	-373.9119	224.5357	1396.566	-327.0843	406.2527	1135.0927	-198.8088	174.8262	1189.3601	-239.2667	293.1093	1143.3672	-11.874	233.2947	998.2092	-41.8126	244.8911	1009.9442	23.0733	303.4535	857.5033	50.6108	355.5762	795.9721	34.3261	307.85	787.3456	51.2744	380.0142	714.4916	49.3627	331.5076	709.6128	62.7848	315.34	1475.4254	-353.9302	406.8567	1563.3732	-432.5384	361.396	1588.8355	-440.5717	384.0235	1748.2769	-442.3574	394.521	1821.2695	-425.254	430.4653	1816.6777	-449.4099	398.1705	1896.0411	-434.2375	437.3467	1892.5846	-452.1502	373.3478	907.3481	-77.6363	186.0866	928.775	-163.0476	375.4392	894.5699	-335.7857	187.54	922.5834	-265.2695	292.3653	970.8513	-51.3059	290.7127	940.9247	-375.7294	138.6662	1289.7373	-334.5705	166.6106	1197.7629	-366.5441	197.0407	1351.0123	-443.8726
180	0.895	195.0588	1368.012	-235.808	331.9256	1325.1117	-205.6293	178.0416	1318.4465	-78.6562	208.1524	1322.5321	-38.212	228.7917	1358.6508	-56.8607	201.7051	1340.4536	-359.6882	236.4575	1375.4114	-373.9031	224.5248	1396.5649	-327.0782	406.2003	1135.0715	-198.7852	174.811	1189.3717	-239.3034	293.1259	1143.3331	-11.8799	233.2972	998.1834	-41.8469	244.8297	1009.8771	23.0179	303.4895	857.4759	50.5466	355.6594	795.9202	34.2273	307.788	787.3306	51.2122	379.9933	714.5939	49.363	331.4565	709.6331	62.7408	315.3468	1475.424	-353.939	406.8705	1563.3209	-432.558	361.3653	1588.7739	-440.5637	384.0389	1748.2665	-442.3701	394.5644	1821.2592	-425.2769	430.4276	1816.7284	-449.4533	398.218	1896.0041	-434.2586	437.3558	1892.5732	-452.1658	373.408	907.382	-77.6738	186.0841	928.7716	-163.0504	375.4453	894.5737	-335.8098	187.5341	922.5516	-265.2918	292.3344	970.8283	-51.3297	290.7085	940.9759	-375.8113	138.6006	1289.7314	-334.5114	166.623	1197.7931	-366.564	197.0411	1351.0035	-443.8987
